<svg xmlns="http://www.w3.org/2000/svg" fill="none" viewBox="0 0 24 24">
  <g fill="currentColor" clip-path="url(#a)">
    <path fill-opacity=".8" d="M16.014 0a1.333 1.333 0 0 1 .156 2.657l-.17.01a1.333 1.333 0 0 1-.156-2.658l.17-.009Zm6.666 0a1.334 1.334 0 0 1 .156 2.657l-.169.01a1.333 1.333 0 0 1-.156-2.658l.17-.009Zm0 14.667a1.333 1.333 0 0 1 .156 2.657l-.169.01a1.333 1.333 0 0 1-.156-2.658l.17-.01Zm-21.333 0a1.333 1.333 0 0 1 .156 2.657l-.17.01a1.333 1.333 0 0 1-.155-2.658l.169-.01Zm21.333 6.666a1.334 1.334 0 0 1 .156 2.658l-.169.009a1.333 1.333 0 0 1-.156-2.657l.17-.01Zm-6.666 0a1.333 1.333 0 0 1 .156 2.658L16 24a1.333 1.333 0 0 1-.156-2.657l.17-.01Zm-8 0a1.333 1.333 0 0 1 .156 2.658L8 24a1.333 1.333 0 0 1-.156-2.657l.17-.01Zm-6.667 0a1.333 1.333 0 0 1 .156 2.658l-.17.009a1.333 1.333 0 0 1-.155-2.657l.169-.01ZM8.928.367a1.333 1.333 0 0 0-.914-.364l-.17.01a1.333 1.333 0 0 0 .157 2.657l.17-.01A1.333 1.333 0 0 0 8.927.367Zm-6.667 0a1.333 1.333 0 0 0-.914-.364l-.169.01a1.333 1.333 0 0 0 .156 2.657l.17-.01A1.333 1.333 0 0 0 2.26.367ZM2.259 7.03a1.333 1.333 0 0 0-.914-.363l-.17.01a1.333 1.333 0 0 0 .157 2.657l.17-.01a1.333 1.333 0 0 0 .757-2.293Zm21.325 0a1.334 1.334 0 0 0-.914-.363l-.169.01a1.333 1.333 0 0 0 .156 2.657l.17-.01a1.333 1.333 0 0 0 .757-2.293Z"/>
    <path d="M8.667 6h6.666A2.667 2.667 0 0 1 18 8.667v6.666A2.667 2.667 0 0 1 15.333 18H8.667A2.667 2.667 0 0 1 6 15.333V8.667A2.667 2.667 0 0 1 8.667 6Z"/>
  </g>
</svg>

